<svg width="current" height="current" viewBox="0 0 24 24" fill="none" xmlns="http://www.w3.org/2000/svg">
<path d="M6.04163 11.2288C5.97947 10.8282 5.94723 10.4179 5.94723 10C5.94723 5.58172 9.55251 2 13.9999 2C18.4472 2 22.0525 5.58172 22.0525 10C22.0525 10.9981 21.8685 11.9535 21.5324 12.8345C21.4626 13.0175 21.4277 13.109 21.4119 13.1804C21.3962 13.2512 21.3901 13.301 21.3884 13.3735C21.3867 13.4466 21.3966 13.5272 21.4164 13.6883L21.819 16.9585C21.8626 17.3125 21.8844 17.4895 21.8255 17.6182C21.7739 17.731 21.6823 17.8205 21.5684 17.8695C21.4383 17.9254 21.2619 17.8995 20.909 17.8478L17.7237 17.3809C17.5574 17.3565 17.4742 17.3443 17.3985 17.3448C17.3236 17.3452 17.2717 17.3507 17.1984 17.3661C17.1243 17.3817 17.0296 17.4172 16.8402 17.4881C15.9569 17.819 14.9997 18 13.9999 18C13.5817 18 13.1709 17.9683 12.7699 17.9073M7.57884 22C10.5437 22 12.9473 19.5376 12.9473 16.5C12.9473 13.4624 10.5437 11 7.57884 11C4.61395 11 2.21042 13.4624 2.21042 16.5C2.21042 17.1106 2.30754 17.6979 2.48681 18.2467C2.5626 18.4787 2.60049 18.5947 2.61292 18.6739C2.6259 18.7567 2.62818 18.8031 2.62335 18.8867C2.61871 18.9668 2.59868 19.0573 2.55861 19.2383L1.94727 22L4.94207 21.591C5.10553 21.5687 5.18726 21.5575 5.25863 21.558C5.33378 21.5585 5.37367 21.5626 5.44737 21.5773C5.51737 21.5912 5.62143 21.6279 5.82954 21.7014C6.37786 21.8949 6.96637 22 7.57884 22Z" stroke="current" stroke-width="2" stroke-linecap="round" stroke-linejoin="round"/>
</svg>
