<svg width="current" height="current" viewBox="0 0 24 24" fill="none" xmlns="http://www.w3.org/2000/svg">
<path d="M15.4999 10.995C16.2565 10.995 16.8699 9.95628 16.8699 8.67498C16.8699 7.39368 16.2565 6.35498 15.4999 6.35498C14.7433 6.35498 14.1299 7.39368 14.1299 8.67498C14.1299 9.95628 14.7433 10.995 15.4999 10.995Z" fill="current"/>
<path d="M8.49988 10.995C9.25651 10.995 9.86988 9.95628 9.86988 8.67498C9.86988 7.39368 9.25651 6.35498 8.49988 6.35498C7.74325 6.35498 7.12988 7.39368 7.12988 8.67498C7.12988 9.95628 7.74325 10.995 8.49988 10.995Z" fill="current"/>
<path d="M19.9401 12.995C19.4301 15.525 16.3801 17.645 12.0001 17.645C7.62006 17.645 5.01006 15.315 4.06006 12.995" stroke="current" stroke-width="2" stroke-linecap="round" stroke-linejoin="round" fill="none"/>
</svg>
