<svg width="current" height="current" viewBox="0 0 24 24" fill="none" xmlns="http://www.w3.org/2000/svg">
<path d="M2 19.2372C2 16.9847 3.57609 15.0661 5.71804 14.7111L5.91098 14.6791C7.62614 14.3948 9.37386 14.3948 11.089 14.6791L11.282 14.7111C13.4239 15.0661 15 16.9847 15 19.2372C15 20.2108 14.24 21 13.3025 21H3.69755C2.76002 21 2 20.2108 2 19.2372Z" stroke="current" stroke-width="2"/>
<path d="M12.2917 6.9375C12.2917 9.11212 10.5941 10.875 8.5 10.875C6.40592 10.875 4.70833 9.11212 4.70833 6.9375C4.70833 4.76288 6.40592 3 8.5 3C10.5941 3 12.2917 4.76288 12.2917 6.9375Z" stroke="current" stroke-width="2"/>
<path d="M15 10.875C17.2552 10.875 19.0833 9.11212 19.0833 6.9375C19.0833 4.76288 17.2552 3 15 3M17.7882 21H20.1719C21.1815 21 22 20.2108 22 19.2372C22 16.9847 20.3027 15.0661 17.996 14.7111V14.7111C17.8576 14.6898 17.7176 14.6791 17.5777 14.6791C17.2045 14.6791 17.0887 14.6791 16.448 14.6791" stroke="current" stroke-width="2" stroke-linecap="round"/>
</svg>
